<svg width="23" height="20" viewBox="0 0 23 20" fill="none" xmlns="http://www.w3.org/2000/svg">
<path d="M18.1579 13.4889C19.1211 13.4889 20.0448 13.8319 20.7258 14.4424C21.4069 15.0529 21.7895 15.881 21.7895 16.7444C21.7895 17.6079 21.4069 18.4359 20.7258 19.0465C20.0448 19.657 19.1211 20 18.1579 20C17.4062 20.0019 16.6724 19.794 16.0585 19.4051C15.4446 19.0161 14.981 18.4655 14.7321 17.8296H13.3158V15.6592H14.7321C15.2284 14.3896 16.5721 13.4889 18.1579 13.4889ZM18.1579 15.6592C17.8368 15.6592 17.5289 15.7736 17.3019 15.9771C17.0749 16.1806 16.9474 16.4566 16.9474 16.7444C16.9474 17.0322 17.0749 17.3083 17.3019 17.5118C17.5289 17.7153 17.8368 17.8296 18.1579 17.8296C18.4789 17.8296 18.7869 17.7153 19.0139 17.5118C19.2409 17.3083 19.3684 17.0322 19.3684 16.7444C19.3684 16.4566 19.2409 16.1806 19.0139 15.9771C18.7869 15.7736 18.4789 15.6592 18.1579 15.6592ZM18.1579 5.89256C18.617 5.89256 19.0573 5.72907 19.3819 5.43805C19.7066 5.14702 19.889 4.75231 19.889 4.34075C19.889 3.92918 19.7066 3.53447 19.3819 3.24345C19.0573 2.95242 18.617 2.78893 18.1579 2.78893C17.6988 2.78893 17.2585 2.95242 16.9339 3.24345C16.6092 3.53447 16.4268 3.92918 16.4268 4.34075C16.4268 4.75231 16.6092 5.14702 16.9339 5.43805C17.2585 5.72907 17.6988 5.89256 18.1579 5.89256ZM18.1579 0C19.4421 0 20.6737 0.457327 21.5818 1.27138C22.4899 2.08542 23 3.18951 23 4.34075C23 7.58545 18.1579 12.4037 18.1579 12.4037C18.1579 12.4037 13.3158 7.58545 13.3158 4.34075C13.3158 3.18951 13.8259 2.08542 14.734 1.27138C15.6421 0.457327 16.8737 0 18.1579 0ZM7.05738 15.6592H8.47369V17.8296H7.05738C6.80848 18.4655 6.34489 19.0161 5.73099 19.4051C5.11708 19.794 4.38333 20.0019 3.63159 20C2.66844 20 1.74473 19.657 1.06368 19.0465C0.382627 18.4359 1.5149e-05 17.6079 1.5149e-05 16.7444C1.5149e-05 15.3228 1.00475 14.1183 2.42107 13.6734V12.4037H4.84212V13.6734C5.87106 13.9989 6.69422 14.7368 7.05738 15.6592ZM3.63159 15.6592C3.31054 15.6592 3.00264 15.7736 2.77562 15.9771C2.5486 16.1806 2.42107 16.4566 2.42107 16.7444C2.42107 17.0322 2.5486 17.3083 2.77562 17.5118C3.00264 17.7153 3.31054 17.8296 3.63159 17.8296C3.95264 17.8296 4.26054 17.7153 4.48756 17.5118C4.71458 17.3083 4.84212 17.0322 4.84212 16.7444C4.84212 16.4566 4.71458 16.1806 4.48756 15.9771C4.26054 15.7736 3.95264 15.6592 3.63159 15.6592ZM3.63159 0.46663C4.59475 0.46663 5.51845 0.809626 6.1995 1.42016C6.88056 2.0307 7.26317 2.85876 7.26317 3.72219C7.26317 5.14378 6.25843 6.34834 4.84212 6.79327V8.06294H2.42107V6.79327C1.71173 6.57014 1.09749 6.15455 0.663638 5.60421C0.229783 5.05387 -0.00215921 4.39609 1.5149e-05 3.72219C1.5149e-05 2.85876 0.382627 2.0307 1.06368 1.42016C1.74473 0.809626 2.66844 0.46663 3.63159 0.46663ZM3.63159 2.637C3.31054 2.637 3.00264 2.75134 2.77562 2.95485C2.5486 3.15836 2.42107 3.43438 2.42107 3.72219C2.42107 4.01 2.5486 4.28602 2.77562 4.48953C3.00264 4.69304 3.31054 4.80738 3.63159 4.80738C3.95264 4.80738 4.26054 4.69304 4.48756 4.48953C4.71458 4.28602 4.84212 4.01 4.84212 3.72219C4.84212 3.43438 4.71458 3.15836 4.48756 2.95485C4.26054 2.75134 3.95264 2.637 3.63159 2.637ZM9.68422 17.8296V15.6592H12.1053V17.8296H9.68422ZM4.84212 11.3185H2.42107V9.14812H4.84212V11.3185Z" fill="white"/>
</svg>
