<svg width="30" height="24" viewBox="0 0 30 24" fill="none" xmlns="http://www.w3.org/2000/svg">
<path d="M24.7259 10.2661L24.5508 10.7883L25.0875 10.9122C27.5613 11.4834 29.5 14.0195 29.5 17.1429C29.5 20.719 26.9773 23.5 24 23.5H6.75C3.36021 23.5 0.5 20.3333 0.5 16.2857C0.5 13.0994 2.28342 10.4392 4.69589 9.46927L5.02044 9.33878L5.00911 8.98916C5.00438 8.84317 5 8.70662 5 8.57143C5 4.04705 8.19302 0.5 12 0.5C14.5593 0.5 16.8266 2.08851 18.0552 4.5218L18.3272 5.0603L18.8058 4.69318C19.4384 4.20804 20.1956 3.92857 21 3.92857C23.1476 3.92857 25 5.94348 25 8.57143C25 9.17015 24.9012 9.7433 24.7259 10.2661ZM8.55937 14.2143H11.125V19.7143C11.125 20.3971 11.6257 21.0714 12.375 21.0714H14.625C15.3743 21.0714 15.875 20.3971 15.875 19.7143V14.2143H18.4406C19.0353 14.2143 19.4416 13.799 19.6025 13.3569C19.7637 12.9138 19.7207 12.3501 19.3466 11.9225L14.406 6.27611C13.9161 5.7163 13.0839 5.7163 12.594 6.27611L7.6534 11.9225C7.28013 12.3491 7.23486 12.9122 7.39545 13.356C7.5561 13.8001 7.96329 14.2143 8.55937 14.2143Z" stroke="white"/>
</svg>
