<svg width="82" height="42" viewBox="0 0 82 42" fill="none" xmlns="http://www.w3.org/2000/svg">
<path d="M40.5045 20.4027L40.5042 20.4026L25.4907 14.2111C25.4907 14.2111 25.4907 14.2111 25.4906 14.2111C24.8365 13.9412 24.8365 13.0595 25.4906 12.7895C25.4907 12.7895 25.4907 12.7895 25.4907 12.7895L40.5048 6.59803L40.5061 6.59751C40.6597 6.5337 40.8284 6.5 41.0003 6.5C41.1723 6.5 41.341 6.5337 41.4946 6.59752L41.4958 6.59801L56.5087 12.7901C56.5087 12.7901 56.5087 12.7901 56.5087 12.7901C57.1629 13.06 57.1629 13.9412 56.5087 14.2111C56.5087 14.2111 56.5087 14.2111 56.5087 14.2111L41.4951 20.4026L41.4949 20.4027C41.1789 20.5333 40.8205 20.5333 40.5045 20.4027ZM56.5095 20.3082L56.5095 20.3082C57.1635 20.5777 57.1635 21.4579 56.5095 21.7274L56.5095 21.7274L41.4954 27.9141C41.1791 28.0444 40.8204 28.0444 40.5041 27.9142C40.504 27.9142 40.504 27.9142 40.504 27.9141L25.4905 21.7274L25.4905 21.7274C24.8365 21.4579 24.8365 20.5777 25.4905 20.3082L25.3 19.8459L25.4905 20.3082L29.0447 18.844L39.2717 23.0586L39.2717 23.0586C39.8206 23.2847 40.4022 23.3992 41 23.3992C41.5976 23.3992 42.18 23.2847 42.7283 23.0586C42.7284 23.0586 42.7284 23.0585 42.7285 23.0585L52.9559 18.844L56.5095 20.3082ZM56.5095 27.7964L56.5095 27.7964C57.1635 28.0658 57.1635 28.9461 56.5095 29.2155L56.5095 29.2155L41.4954 35.4023C41.1791 35.5325 40.8204 35.5326 40.5041 35.4024C40.504 35.4023 40.504 35.4023 40.504 35.4023L25.4905 29.2155L25.4905 29.2155C24.8365 28.9461 24.8365 28.0658 25.4905 27.7964L29.0305 26.338L39.2717 30.5585L39.2717 30.5585C39.8206 30.7846 40.4022 30.8991 41 30.8991C41.5976 30.8991 42.18 30.7846 42.7283 30.5585C42.7284 30.5584 42.7284 30.5584 42.7285 30.5584L52.9701 26.338L56.5095 27.7964Z" stroke="white"/>
</svg>
