<svg width="82" height="42" viewBox="0 0 82 42" fill="none" xmlns="http://www.w3.org/2000/svg">
<path d="M50.7259 19.2661L50.5508 19.7883L51.0875 19.9122C53.5613 20.4834 55.5 23.0195 55.5 26.1429C55.5 29.719 52.9773 32.5 50 32.5H32.75C29.3602 32.5 26.5 29.3333 26.5 25.2857C26.5 22.0994 28.2834 19.4392 30.6959 18.4693L31.0204 18.3388L31.0091 17.9892C31.0044 17.8432 31 17.7066 31 17.5714C31 13.0471 34.193 9.5 38 9.5C40.5593 9.5 42.8266 11.0885 44.0552 13.5218L44.3272 14.0603L44.8058 13.6932C45.4384 13.208 46.1956 12.9286 47 12.9286C49.1476 12.9286 51 14.9435 51 17.5714C51 18.1702 50.9012 18.7433 50.7259 19.2661ZM34.5594 23.2143H37.125V28.7143C37.125 29.3971 37.6257 30.0714 38.375 30.0714H40.625C41.3743 30.0714 41.875 29.3971 41.875 28.7143V23.2143H44.4406C45.0353 23.2143 45.4416 22.799 45.6025 22.3569C45.7637 21.9138 45.7207 21.3501 45.3466 20.9225L40.406 15.2761C39.9161 14.7163 39.0839 14.7163 38.594 15.2761L33.6534 20.9225C33.2801 21.3491 33.2349 21.9122 33.3955 22.356C33.5561 22.8001 33.9633 23.2143 34.5594 23.2143Z" stroke="white"/>
</svg>
