<svg width="49" height="42" viewBox="0 0 49 42" fill="none" xmlns="http://www.w3.org/2000/svg">
<rect y="0.5" width="49" height="41" rx="10" fill="#696969"/>
<path d="M31.1579 24.4889C32.1211 24.4889 33.0448 24.8319 33.7258 25.4424C34.4069 26.0529 34.7895 26.881 34.7895 27.7444C34.7895 28.6079 34.4069 29.4359 33.7258 30.0465C33.0448 30.657 32.1211 31 31.1579 31C30.4062 31.0019 29.6724 30.794 29.0585 30.4051C28.4446 30.0161 27.981 29.4655 27.7321 28.8296H26.3158V26.6592H27.7321C28.2284 25.3896 29.5721 24.4889 31.1579 24.4889ZM31.1579 26.6592C30.8368 26.6592 30.5289 26.7736 30.3019 26.9771C30.0749 27.1806 29.9474 27.4566 29.9474 27.7444C29.9474 28.0322 30.0749 28.3083 30.3019 28.5118C30.5289 28.7153 30.8368 28.8296 31.1579 28.8296C31.4789 28.8296 31.7869 28.7153 32.0139 28.5118C32.2409 28.3083 32.3684 28.0322 32.3684 27.7444C32.3684 27.4566 32.2409 27.1806 32.0139 26.9771C31.7869 26.7736 31.4789 26.6592 31.1579 26.6592ZM31.1579 16.8926C31.617 16.8926 32.0573 16.7291 32.3819 16.438C32.7066 16.147 32.889 15.7523 32.889 15.3407C32.889 14.9292 32.7066 14.5345 32.3819 14.2434C32.0573 13.9524 31.617 13.7889 31.1579 13.7889C30.6988 13.7889 30.2585 13.9524 29.9339 14.2434C29.6092 14.5345 29.4268 14.9292 29.4268 15.3407C29.4268 15.7523 29.6092 16.147 29.9339 16.438C30.2585 16.7291 30.6988 16.8926 31.1579 16.8926ZM31.1579 11C32.4421 11 33.6737 11.4573 34.5818 12.2714C35.4899 13.0854 36 14.1895 36 15.3407C36 18.5855 31.1579 23.4037 31.1579 23.4037C31.1579 23.4037 26.3158 18.5855 26.3158 15.3407C26.3158 14.1895 26.8259 13.0854 27.734 12.2714C28.6421 11.4573 29.8737 11 31.1579 11ZM20.0574 26.6592H21.4737V28.8296H20.0574C19.8085 29.4655 19.3449 30.0161 18.731 30.4051C18.1171 30.794 17.3833 31.0019 16.6316 31C15.6684 31 14.7447 30.657 14.0637 30.0465C13.3826 29.4359 13 28.6079 13 27.7444C13 26.3228 14.0048 25.1183 15.4211 24.6734V23.4037H17.8421V24.6734C18.8711 24.9989 19.6942 25.7368 20.0574 26.6592ZM16.6316 26.6592C16.3105 26.6592 16.0026 26.7736 15.7756 26.9771C15.5486 27.1806 15.4211 27.4566 15.4211 27.7444C15.4211 28.0322 15.5486 28.3083 15.7756 28.5118C16.0026 28.7153 16.3105 28.8296 16.6316 28.8296C16.9526 28.8296 17.2605 28.7153 17.4876 28.5118C17.7146 28.3083 17.8421 28.0322 17.8421 27.7444C17.8421 27.4566 17.7146 27.1806 17.4876 26.9771C17.2605 26.7736 16.9526 26.6592 16.6316 26.6592ZM16.6316 11.4666C17.5947 11.4666 18.5185 11.8096 19.1995 12.4202C19.8806 13.0307 20.2632 13.8588 20.2632 14.7222C20.2632 16.1438 19.2584 17.3483 17.8421 17.7933V19.0629H15.4211V17.7933C14.7117 17.5701 14.0975 17.1546 13.6636 16.6042C13.2298 16.0539 12.9978 15.3961 13 14.7222C13 13.8588 13.3826 13.0307 14.0637 12.4202C14.7447 11.8096 15.6684 11.4666 16.6316 11.4666ZM16.6316 13.637C16.3105 13.637 16.0026 13.7513 15.7756 13.9548C15.5486 14.1584 15.4211 14.4344 15.4211 14.7222C15.4211 15.01 15.5486 15.286 15.7756 15.4895C16.0026 15.693 16.3105 15.8074 16.6316 15.8074C16.9526 15.8074 17.2605 15.693 17.4876 15.4895C17.7146 15.286 17.8421 15.01 17.8421 14.7222C17.8421 14.4344 17.7146 14.1584 17.4876 13.9548C17.2605 13.7513 16.9526 13.637 16.6316 13.637ZM22.6842 28.8296V26.6592H25.1053V28.8296H22.6842ZM17.8421 22.3185H15.4211V20.1481H17.8421V22.3185Z" fill="white"/>
</svg>
